# xmcd
#
# Track frame offsets:
# 150
# 9468
# 35654
# 66664
# 98193
# 152309
# 185351
#
# Disc length: 3007 seconds
#
# Revision: 0
# Processed by: cddbd v1.5.1PL0 Copyright (c) Steve Scherf et al.
# Submitted via: Audion 3.0.2 (http://www.panic.com/audion/)
#
DISCID=530bbd07
DTITLE=Tomsky and Krageagenturet - Bortkomne postkort
DYEAR=1900
DGENRE=
TTITLE0=Bratislava
TTITLE1=Syrjanka
TTITLE2=Istanbul
TTITLE3=Kære ministerium
TTITLE4=Prag
TTITLE5=Trieste
TTITLE6=Afsked
EXTD=
EXTT0=
EXTT1=
EXTT2=
EXTT3=
EXTT4=
EXTT5=
EXTT6=
PLAYORDER=
